<?xml version="1.0" standalone="no"?>
<!DOCTYPE svg PUBLIC "-//W3C//DTD SVG 20010904//EN"
 "http://www.w3.org/TR/2001/REC-SVG-20010904/DTD/svg10.dtd">
<svg version="1.0" xmlns="http://www.w3.org/2000/svg"
 width="512.000000pt" height="512.000000pt" viewBox="0 0 512.000000 512.000000"
 preserveAspectRatio="xMidYMid meet">

<g transform="translate(0.000000,512.000000) scale(0.100000,-0.100000)"
fill="#000000" stroke="none">
<path d="M509 4674 c-195 -194 -213 -220 -169 -244 17 -9 28 -4 73 39 l53 50
282 -282 c155 -155 282 -287 282 -292 0 -6 -31 -42 -70 -80 -70 -70 -87 -106
-54 -119 26 -10 32 -8 70 26 l37 32 676 -681 c372 -375 686 -687 698 -692 31
-15 69 -13 105 5 l31 16 96 -96 c55 -55 105 -96 116 -96 10 0 32 12 47 27 l29
27 155 -154 c85 -85 159 -162 164 -170 7 -13 -10 -16 -133 -17 -170 -3 -336
-29 -462 -74 -86 -30 -98 -31 -260 -33 -147 -2 -183 -6 -266 -28 -205 -55
-363 -161 -488 -329 -136 -180 -215 -412 -255 -749 -19 -158 -38 -462 -30
-483 8 -21 32 -29 53 -17 16 8 19 29 25 147 33 647 152 997 411 1205 144 116
290 167 504 175 l143 6 -6 -64 c-33 -307 -131 -563 -290 -753 -47 -57 -152
-141 -256 -206 -137 -85 -256 -237 -311 -397 -23 -68 -24 -96 -3 -114 25 -21
47 1 70 73 37 113 83 188 169 273 44 45 112 100 150 123 305 182 499 525 545
964 5 53 14 95 22 99 24 15 164 58 239 73 119 24 293 37 416 30 l111 -7 133
-133 c106 -106 139 -134 161 -134 18 0 29 7 33 21 6 18 -10 39 -91 120 -113
114 -113 114 51 73 120 -30 104 -7 124 -188 34 -304 159 -585 342 -768 38 -38
119 -101 181 -142 188 -122 271 -223 333 -405 26 -78 46 -95 76 -65 l20 21
-26 79 c-60 179 -165 309 -350 429 -123 80 -198 148 -269 245 -125 169 -213
425 -240 693 l-6 57 82 0 c98 0 239 -27 326 -63 248 -100 425 -316 516 -631
49 -168 96 -529 96 -738 0 -77 13 -108 44 -108 37 0 40 25 28 223 -36 585
-131 888 -353 1122 -167 175 -367 259 -644 272 -86 4 -151 13 -230 34 -91 23
-268 59 -294 59 -4 0 -96 92 -205 206 l-199 205 27 28 c14 15 26 34 26 42 0 8
-45 59 -99 113 -99 99 -100 99 -85 127 17 34 18 72 3 102 -6 12 -315 326 -685
698 -371 372 -674 681 -674 686 0 5 11 20 25 33 27 26 32 49 13 68 -23 23 -44
12 -113 -58 l-70 -70 -282 282 c-156 156 -283 287 -283 293 0 5 21 31 47 57
39 40 46 51 37 66 -28 45 -49 31 -245 -164z m629 -631 l-43 -43 -287 287 -288
288 42 42 43 43 287 -287 288 -288 -42 -42z m237 17 l49 -50 -67 -69 c-68 -70
-77 -87 -55 -109 22 -22 43 -12 108 53 l64 65 43 -42 43 -42 -36 -37 c-25 -25
-35 -44 -32 -60 5 -37 38 -35 84 5 l41 35 41 -42 42 -43 -65 -64 c-65 -65 -75
-86 -53 -108 22 -22 43 -12 108 53 l64 65 38 -37 38 -37 -36 -37 c-70 -72 -17
-125 55 -55 l37 36 37 -38 37 -38 -75 -74 c-75 -74 -86 -95 -63 -118 23 -23
44 -12 118 63 l74 75 43 -42 43 -42 -36 -37 c-43 -44 -44 -82 -4 -87 18 -2 35
7 60 33 l34 35 38 -37 38 -37 -75 -77 c-76 -77 -85 -95 -63 -117 23 -23 44
-12 118 63 l74 75 53 -52 53 -52 -46 -47 c-39 -39 -46 -52 -40 -73 10 -40 43
-33 96 19 l46 45 39 -41 40 -40 -87 -82 c-87 -82 -99 -102 -76 -125 22 -22 43
-12 103 49 33 33 73 70 88 81 l29 21 44 -44 c24 -24 44 -52 44 -63 0 -28 -208
-236 -235 -236 -19 0 -160 139 -1085 1072 l-285 288 125 125 c69 69 127 125
130 125 3 0 28 -22 55 -50z m1405 -1665 l-45 -45 -80 80 -79 80 44 45 45 45
80 -80 80 -80 -45 -45z"/>
<path d="M2527 1754 c-4 -4 -7 -51 -7 -104 0 -77 3 -100 16 -111 11 -9 20 -10
32 -2 14 8 17 28 17 114 0 104 0 104 -25 107 -14 2 -29 0 -33 -4z"/>
<path d="M2757 1753 c-12 -12 -8 -198 5 -211 16 -16 33 -15 52 4 20 19 23 183
4 202 -13 13 -50 16 -61 5z"/>
<path d="M2992 1748 c-19 -19 -16 -183 4 -202 18 -19 20 -19 45 -6 17 9 19 22
19 103 0 94 -8 117 -40 117 -9 0 -21 -5 -28 -12z"/>
<path d="M3216 1744 c-11 -29 -7 -189 6 -202 16 -16 33 -15 52 4 20 19 23 183
4 202 -17 17 -55 15 -62 -4z"/>
<path d="M2637 1443 c-12 -12 -8 -198 5 -211 16 -16 33 -15 52 4 19 18 23 163
6 195 -10 18 -50 26 -63 12z"/>
<path d="M2872 1438 c-8 -8 -12 -46 -12 -105 0 -82 2 -93 20 -103 14 -8 26 -8
40 0 18 10 20 21 20 103 0 94 -8 117 -40 117 -9 0 -21 -5 -28 -12z"/>
<path d="M3101 1431 c-6 -11 -11 -56 -11 -100 0 -81 12 -111 44 -111 29 0 37
28 34 126 l-3 99 -27 3 c-18 2 -30 -3 -37 -17z"/>
<path d="M3337 1444 c-4 -4 -7 -51 -7 -104 0 -77 3 -100 16 -111 11 -9 20 -10
32 -2 14 8 17 28 17 114 0 104 0 104 -25 107 -14 2 -29 0 -33 -4z"/>
</g>
</svg>
